<?xml version="1.0" standalone="no"?>
<!DOCTYPE svg PUBLIC "-//W3C//DTD SVG 20010904//EN"
 "http://www.w3.org/TR/2001/REC-SVG-20010904/DTD/svg10.dtd">
<svg version="1.0" xmlns="http://www.w3.org/2000/svg"
 width="554.000000pt" height="554.000000pt" viewBox="0 0 554.000000 554.000000"
 preserveAspectRatio="xMidYMid meet">
<metadata>
Created by potrace 1.14, written by Peter Selinger 2001-2017
</metadata>
<g transform="translate(0.000000,554.000000) scale(0.100000,-0.100000)"
fill="#000000" stroke="none">
<path d="M4447 4764 c-1 -1 -45 -5 -97 -9 -101 -7 -155 -12 -155 -15 0 -1 -16
-3 -35 -5 -19 -2 -48 -6 -64 -9 -33 -6 -116 -19 -131 -21 -5 -1 -21 -4 -35 -8
-14 -4 -36 -9 -50 -11 -29 -6 -49 -10 -110 -26 -25 -6 -52 -12 -60 -14 -43 -8
-110 -31 -110 -39 0 -4 -4 -6 -9 -3 -7 5 -158 -45 -256 -84 -16 -6 -32 -11
-35 -12 -3 0 -16 -6 -30 -13 -14 -8 -79 -39 -145 -69 -66 -31 -127 -60 -135
-66 -8 -5 -31 -17 -50 -27 -19 -9 -37 -19 -40 -22 -3 -4 -21 -15 -40 -25 -55
-29 -259 -164 -283 -186 -11 -11 -24 -20 -27 -20 -4 0 -16 -8 -28 -17 -11 -10
-35 -29 -52 -43 -251 -196 -522 -484 -710 -754 -59 -86 -140 -213 -140 -222 0
-3 -12 -23 -26 -46 -88 -139 -235 -481 -303 -703 -35 -114 -84 -316 -78 -322
2 -2 28 35 57 83 204 333 522 692 864 977 11 9 30 26 41 36 53 49 353 261 369
261 4 0 15 8 26 18 10 9 40 28 67 42 26 14 50 28 53 31 10 13 280 150 280 142
0 -4 4 -3 8 3 4 6 36 23 72 38 36 16 77 35 93 43 15 8 27 11 27 7 0 -3 6 -2
13 4 17 15 158 69 252 98 44 14 87 28 95 31 8 3 22 8 30 10 21 5 32 9 50 16
21 8 169 48 200 53 14 3 43 10 65 16 22 5 49 11 60 13 11 1 34 5 50 8 17 4 44
9 60 12 17 3 39 7 50 9 11 2 40 7 65 10 242 33 437 146 578 336 99 134 166
338 153 471 0 8 -11 16 -23 17 -40 2 -419 8 -421 6z"/>
<path d="M3556 3343 c-4 -4 -12 -8 -19 -9 -21 -3 -161 -46 -172 -52 -5 -4 -17
-8 -26 -9 -9 -1 -52 -16 -95 -33 -44 -17 -88 -33 -98 -35 -11 -3 -24 -9 -30
-15 -5 -5 -15 -10 -22 -10 -16 0 -304 -141 -369 -180 -27 -17 -58 -33 -67 -37
-10 -3 -18 -9 -18 -14 0 -5 -5 -9 -11 -9 -19 0 -300 -194 -364 -252 -32 -28
-70 -60 -117 -98 -83 -67 -324 -316 -419 -435 -101 -127 -249 -336 -249 -353
0 -6 -4 -12 -9 -14 -23 -8 -189 -329 -257 -498 -19 -47 -39 -94 -44 -105 -18
-39 -69 -202 -104 -325 -41 -148 -64 -265 -86 -435 -6 -44 -13 -95 -15 -113
-8 -54 -15 -258 -9 -242 4 8 12 29 19 45 7 17 23 55 35 85 35 86 176 365 238
470 53 91 200 319 212 330 3 3 17 21 30 40 27 40 212 273 246 310 143 156 232
246 334 340 19 18 54 50 77 71 23 21 45 39 48 39 3 0 16 9 28 21 40 38 284
219 296 219 6 0 11 4 11 8 0 5 12 15 28 23 15 8 29 16 32 19 10 11 158 100
166 100 4 0 15 6 23 14 9 7 50 30 91 52 324 165 540 405 646 716 53 156 81
411 40 371z"/>
</g>
</svg>
